<?xml version="1.0" encoding="UTF-8"?>
<svg version="1.1" xmlns="http://www.w3.org/2000/svg" xmlns:xlink="http://www.w3.org/1999/xlink" width="20.8984" height="20.8887">
 <g>
  <rect height="20.8887" opacity="0" width="20.8984" x="0" y="0"/>
  <path d="M10.4492 20.8887C16.1816 20.8887 20.8984 16.1719 20.8984 10.4395C20.8984 4.70703 16.1816 0 10.4492 0C4.7168 0 0 4.70703 0 10.4395C0 16.1719 4.7168 20.8887 10.4492 20.8887ZM10.4492 19.0723C5.7129 19.0723 1.81641 15.1758 1.81641 10.4395C1.81641 5.70312 5.7129 1.81641 10.4492 1.81641C15.1855 1.81641 19.082 5.70312 19.082 10.4395C19.082 15.1758 15.1855 19.0723 10.4492 19.0723ZM6.25 13.75L6.25 7.12891L8.06641 7.12891L8.06641 13.75ZM10.4492 13.75L10.4492 7.12891L12.2656 7.12891L12.2656 13.75ZM14.6484 13.75L14.6484 7.12891L16.4648 7.12891L16.4648 13.75ZM4.43359 7.12891C4.43359 6.63086 4.8418 6.22266 5.33984 6.22266L15.5586 6.22266C16.0566 6.22266 16.4648 6.63086 16.4648 7.12891C16.4648 7.62695 16.0566 8.03516 15.5586 8.03516L5.33984 8.03516C4.8418 8.03516 4.43359 7.62695 4.43359 7.12891ZM4.43359 13.75C4.43359 13.252 4.8418 12.8438 5.33984 12.8438L15.5586 12.8438C16.0566 12.8438 16.4648 13.252 16.4648 13.75C16.4648 14.248 16.0566 14.6562 15.5586 14.6562L5.33984 14.6562C4.8418 14.6562 4.43359 14.248 4.43359 13.75Z" fill="#000000"/>
 </g>
</svg>
