<?xml version="1.0" encoding="UTF-8"?>
<svg version="1.1" xmlns="http://www.w3.org/2000/svg" xmlns:xlink="http://www.w3.org/1999/xlink" width="20" height="16">
 <g>
  <rect height="16" opacity="0" width="20" x="0" y="0"/>
  <path d="M2.5 16h15c1.38 0 2.5-1.12 2.5-2.5v-11C20 1.12 18.88 0 17.5 0h-15C1.12 0 0 1.12 0 2.5v11C0 14.88 1.12 16 2.5 16zM1.5 2.5c0-.55.45-1 1-1h15c.55 0 1 .45 1 1v11c0 .55-.45 1-1 1h-15c-.55 0-1-.45-1-1v-11zM3.5 4.5l2 2-2 2 1 1 3-3-3-3-1 1zm5 5h6v1h-6v-1z" fill="#000000"/>
 </g>
</svg>
